<svg id="manObject" version="1.1" xmlns="http://www.w3.org/2000/svg" xmlns:xlink="http://www.w3.org/1999/xlink" preserveAspectRatio="xMidYMid meet" viewBox="0 0 100 100" width="100" height="100">
    <defs>
    <path d="M417.83 100.98C417.83 138.77 386.65 169.46 348.26 169.46C309.87 169.46 278.7 138.77 278.7 100.98C278.7 63.18 309.87 32.5 348.26 32.5C386.65 32.5 417.83 63.18 417.83 100.98Z" id="eewAn1GFR"></path>
    <path d="M397.83 169.46C408.87 169.46 417.83 178.41 417.83 189.46C417.83 229.59 417.83 329.98 417.83 370.11C417.83 381.15 408.87 390.11 397.83 390.11C374 390.11 322.52 390.11 298.7 390.11C287.65 390.11 278.7 381.15 278.7 370.11C278.7 329.98 278.7 229.59 278.7 189.46C278.7 178.41 287.65 169.46 298.7 169.46C322.52 169.46 374 169.46 397.83 169.46Z" id="aeKOWPsdc"></path>
    <path d="M261.2 170C250.15 170 241.2 178.95 241.2 190C241.2 219.26 241.2 287.04 241.2 316.3C241.2 327.35 250.15 336.3 261.2 336.3C272.2 336.3 285.2 336.3 296.2 336.3C307.24 336.3 316.2 327.35 316.2 316.3C316.2 287.04 316.2 219.26 316.2 190C316.2 178.95 307.24 170 296.2 170C285.2 170 272.2 170 261.2 170Z" id="dTAlFnluT"></path>
    <path d="M325 361.85C336.05 361.85 345 370.8 345 381.85C345 409.35 345 471.85 345 499.35C345 510.39 336.05 519.35 325 519.35C315.74 519.35 307.96 519.35 298.7 519.35C287.65 519.35 278.7 510.39 278.7 499.35C278.7 471.85 278.7 409.35 278.7 381.85C278.7 370.8 287.65 361.85 298.7 361.85C307.96 361.85 315.74 361.85 325 361.85Z" id="a1x4uf20vG"></path>
    <path d="M397.83 361.85C408.87 361.85 417.83 370.8 417.83 381.85C417.83 409.35 417.83 471.85 417.83 499.35C417.83 510.39 408.87 519.35 397.83 519.35C388.57 519.35 380.78 519.35 371.52 519.35C360.48 519.35 351.52 510.39 351.52 499.35C351.52 471.85 351.52 409.35 351.52 381.85C351.52 370.8 360.48 361.85 371.52 361.85C380.78 361.85 388.57 361.85 397.83 361.85Z" id="ah3QuKdnR"></path>
    <path d="M400.33 170C389.28 170 380.33 178.95 380.33 190C380.33 219.26 380.33 287.04 380.33 316.3C380.33 327.35 389.28 336.3 400.33 336.3C411.33 336.3 424.33 336.3 435.33 336.3C446.37 336.3 455.33 327.35 455.33 316.3C455.33 287.04 455.33 219.26 455.33 190C455.33 178.95 446.37 170 435.33 170C424.33 170 411.33 170 400.33 170Z" id="b6IvKU8XMv"></path>
</defs>
    <g>
    <g>
    <g><use xlink:href="#eewAn1GFR" opacity="1" fill="#1631de" fill-opacity="1" />
    <g><use xlink:href="#eewAn1GFR" opacity="1" fill-opacity="0" stroke="#13b8ba" stroke-width="1" stroke-opacity="1"></use></g>
    </g>
    <g><use xlink:href="#aeKOWPsdc" opacity="1" fill="#1631de" fill-opacity="1" /></g>
    <g><use xlink:href="#dTAlFnluT" opacity="1" fill="#1631de" fill-opacity="1" /></g>
    <g><use xlink:href="#a1x4uf20vG" opacity="1" fill="#1631de" fill-opacity="1"></use></g>
    <g><use xlink:href="#ah3QuKdnR" opacity="1" fill="#1631de" fill-opacity="1"></use></g>
    <g><use xlink:href="#b6IvKU8XMv" opacity="1" fill="#1631de" fill-opacity="1"></use></g>
    </g>
    </g>
</svg>
