<?xml version="1.0" encoding="utf-8"?>
<!-- Generator: Adobe Illustrator 16.0.0, SVG Export Plug-In . SVG Version: 6.00 Build 0)  -->
<!DOCTYPE svg PUBLIC "-//W3C//DTD SVG 1.1//EN" "http://www.w3.org/Graphics/SVG/1.1/DTD/svg11.dtd">
<svg version="1.1" id="Logo" xmlns="http://www.w3.org/2000/svg" xmlns:xlink="http://www.w3.org/1999/xlink" x="0px" y="0px"
	 width="50px" height="50px" viewBox="0 0 50 50" enable-background="new 0 0 50 50" xml:space="preserve">
<path fill="#D80303" stroke="#000000" stroke-miterlimit="10" d="M25,1C11.75,1,1,11.75,1,25s10.75,24,24,24s24-10.75,24-24
	S38.25,1,25,1z M7.53,25.39c0-9.67,7.84-17.5,17.5-17.5c3.19,0,6.19,0.86,8.77,2.36L9.89,34.16C8.39,31.58,7.53,28.58,7.53,25.39z
	 M25.03,42.89c-3.93,0-7.57-1.3-10.49-3.479L39.05,14.9c2.181,2.92,3.48,6.56,3.48,10.49C42.53,35.06,34.7,42.89,25.03,42.89z"/>
</svg>
