<svg version="1.1" id="Manual_Control_3_Axis_SVG" xmlns="http://www.w3.org/2000/svg" xmlns:xlink="http://www.w3.org/1999/xlink"
	 x="0px" y="0px" width="960px" height="813px" viewBox="0 0 960 813" enable-background="new 0 0 960 813" xml:space="preserve" style="-webkit-user-select: none; -moz-user-select: none; -ms-user-select: none;">
<g id="Arrow_Y_Plus" style="cursor: pointer">
	<polygon id="Arrow_Y_Plus_Fill" fill="#FBD7BB" points="374.639,31.673 483.24,153.888 428.609,153.888 428.609,269.486
		320.289,269.486 320.289,153.888 265.662,153.888 	"/>

		<polygon id="Arrow_Y_Plus_Border" fill="none" stroke="#EA700D" stroke-width="0.7508" stroke-linecap="round" stroke-linejoin="round" stroke-miterlimit="10" points="
		374.639,31.673 483.24,153.888 428.609,153.888 428.609,269.486 320.289,269.486 320.289,153.888 265.662,153.888 	"/>
	<g id="Arrow_Y_Plus_Label">

			<text id="Arrow_Y_Plus_Inner_Label_y" transform="matrix(-6.123232e-017 -1 1 -6.123233e-017 396.8167 185.0332)" fill="#EA700D" font-family="'Calibri'" font-size="71.9492">y</text>

			<text id="Arrow_Y_Plus_Inner_Label_Plus" transform="matrix(-6.123232e-017 -1 1 -6.123233e-017 396.8167 152.4902)" fill="#EA700D" font-family="'Calibri'" font-size="71.9492">+</text>

			<text id="Arrow_Y_Plus_Label_Key" transform="matrix(1 0 0 1 349.6125 341.0146)" fill="#7F7F7F" font-family="'Calibri'" font-size="57.5715">W</text>
	</g>
</g>
<g id="Arrow_Y_Minus" style="cursor: pointer">
	<polygon id="Arrow_Y_Minus_Fill" fill="#FBD7BB" points="374.639,778.948 265.662,656.356 320.289,656.356 320.289,541.042
		428.609,541.042 428.609,656.356 483.24,656.356 	"/>

		<polygon id="Arrow_Y_Minus_Border" fill="none" stroke="#EA700D" stroke-width="0.7508" stroke-linecap="round" stroke-linejoin="round" stroke-miterlimit="10" points="
		374.639,778.948 265.662,656.356 320.289,656.356 320.289,541.042 428.609,541.042 428.609,656.356 483.24,656.356 	"/>
	<g id="Arrow_Y_Minus_Label">

			<text id="Arrow_Y_Minus_Inner_Label_y" transform="matrix(-6.123232e-017 -1 1 -6.123233e-017 396.8167 688.0957)" fill="#EA700D" font-family="'Calibri'" font-size="71.9492">y</text>

			<text id="Arrow_Y_Minus_Inner_Label_Minus" transform="matrix(-6.123232e-017 -1 1 -6.123233e-017 396.8167 655.5137)" fill="#EA700D" font-family="'Calibri'" font-size="71.9492">-</text>

			<text id="Arrow_Y_Minus_Label_Key" transform="matrix(1 0 0 1 361.9426 513.7578)" fill="#7F7F7F" font-family="'Calibri'" font-size="57.5715">S</text>
	</g>
</g>
<g id="Arrow_X_Minus" style="cursor: pointer">
	<polygon id="Arrow_X_Minus_Fill" fill="#FBD7BB" points="1,405.31 123.215,296.613 123.215,350.962 238.814,350.962
		238.814,459.566 123.215,459.566 123.215,513.914 	"/>

		<polygon id="Arrow_X_Minus_Border" fill="none" stroke="#EA700D" stroke-width="0.7508" stroke-linecap="round" stroke-linejoin="round" stroke-miterlimit="10" points="
		1,405.31 123.215,296.613 123.215,350.962 238.814,350.962 238.814,459.566 123.215,459.566 123.215,513.914 	"/>
	<g id="Arrow_X_Minus_Label">

			<text id="Arrow_X_Minus_Inner_Label_x" transform="matrix(1 0 0 1 93.5422 427.418)" fill="#EA700D" font-family="'Calibri'" font-size="71.9492">x</text>

			<text id="Arrow_X_Minus_Inner_Label_Minus" transform="matrix(1 0 0 1 124.6799 427.418)" fill="#EA700D" font-family="'Calibri'" font-size="71.9492">-</text>

			<text id="Arrow_X_Minus_Label_Key" transform="matrix(1 0 0 1 273.926 427.418)" fill="#7F7F7F" font-family="'Calibri'" font-size="57.5112">A</text>
	</g>
</g>
<g id="Arrow_X_Plus" style="cursor: pointer">
	<polygon id="Arrow_X_Plus_Fill" fill="#FBD7BB" points="748.277,405.31 625.683,513.914 625.683,459.566 510.463,459.566
		510.463,350.962 625.683,350.962 625.683,296.613 	"/>

		<polygon id="Arrow_X_x2B__Border" fill="none" stroke="#EA700D" stroke-width="0.7508" stroke-linecap="round" stroke-linejoin="round" stroke-miterlimit="10" points="
		748.277,405.31 625.683,513.914 625.683,459.566 510.463,459.566 510.463,350.962 625.683,350.962 625.683,296.613 	"/>
	<g id="Arrow_X_Plus_Label">

			<text id="Arrow_X_Plus_Inner_Label_x" transform="matrix(1 0 0 1 596.7014 427.418)" fill="#EA700D" font-family="'Calibri'" font-size="71.9492">x</text>

			<text id="Arrow_X_Plus_Inner_Label_Plus" transform="matrix(1 0 0 1 627.9426 428.418)" fill="#EA700D" font-family="'Calibri'" font-size="71.9492">+</text>

			<text id="Arrow_X_Plus_Label_Key" transform="matrix(1 0 0 1 441.0081 427.418)" fill="#7F7F7F" font-family="'Calibri'" font-size="57.5112">D</text>
	</g>
</g>
<g id="Arrow_Z_Plus" style="cursor: pointer">
	<polygon id="Arrow_Z_Plus_Fill" fill="#FBD7BB" points="891.757,31.673 960,153.888 926.163,153.888 926.163,269.486
		857.919,269.486 857.919,153.888 824.175,153.888 	"/>

		<polygon id="Arrow_Z_Plus_Border" fill="none" stroke="#EA700D" stroke-width="0.7508" stroke-linecap="round" stroke-linejoin="round" stroke-miterlimit="10" points="
		891.757,31.673 960,153.888 926.163,153.888 926.163,269.486 857.919,269.486 857.919,153.888 824.175,153.888 	"/>
	<g id="Arrow_Z_Plus_Label">

			<text id="Arrow_Z_Plus_Inner_Label_z" transform="matrix(-6.123232e-017 -1 1 -6.123232e-017 914.9631 182.9736)" fill="#EA700D" font-family="'Calibri'" font-size="72.0091">z</text>

			<text id="Arrow_Z_Plus_Inner_Label_Plus" transform="matrix(-6.123232e-017 -1 1 -6.123232e-017 914.9631 154.5215)" fill="#EA700D" font-family="'Calibri'" font-size="72.0091">+</text>

			<text id="Arrow_Z_Plus_Label_Key" transform="matrix(1 0 0 1 877.719 321.0723)" fill="#7F7F7F" font-family="'Calibri'" font-size="57.5715">R</text>
	</g>
</g>
<g id="Arrow_Z_Minus" style="cursor: pointer">
	<polygon id="Arrow_Z_Minus_Fill" fill="#FBD7BB" points="891.757,778.948 824.175,656.356 857.919,656.356 857.919,541.042
		926.163,541.042 926.163,656.356 960,656.356 	"/>

		<polygon id="Arrow_Z_Minus_Border" fill="none" stroke="#EA700D" stroke-width="0.7508" stroke-linecap="round" stroke-linejoin="round" stroke-miterlimit="10" points="
		891.757,778.948 824.175,656.356 857.919,656.356 857.919,541.042 926.163,541.042 926.163,656.356 960,656.356 	"/>
	<g id="Arrow_Z_Minus_Label">

			<text id="Arrow_Z_Minus_Label_Inner_Label_z" transform="matrix(-6.123232e-017 -1 1 -6.123232e-017 914.9631 685.9766)" fill="#EA700D" font-family="'Calibri'" font-size="72.0091">z</text>

			<text id="Arrow_Z_Minus_Label_Inner_Label_Minus" transform="matrix(-6.123232e-017 -1 1 -6.123232e-017 914.9631 657.5889)" fill="#EA700D" font-family="'Calibri'" font-size="72.0091">-</text>

			<text id="Arrow_Z_Minus_Label_Key" transform="matrix(1 0 0 1 880.1145 525.0664)" fill="#7F7F7F" font-family="'Calibri'" font-size="57.5715">F</text>
	</g>
</g>
<g id="Magnet" style="cursor: pointer">

		<text id="Magnet_Label_Key" transform="matrix(1 0 0 1 879.3362 425.9082)" fill="#7F7F7F" font-family="'Calibri'" font-size="57.5112">E</text>
	<g id="Magnet_Image">
		<path id="Magnet_Fill" fill="#BF5459" d="M899.981,472.447c-0.095,0-0.852,0-0.944,0c-0.663-0.336-0.663-0.336-0.757,0c-0.283,0-1.134,0-1.983,0
			c-0.095-0.596-0.854-0.336-1.04-0.336c-3.78-0.26-7.467-1.202-11.154-2.149c-8.411-2.578-16.069-6.872-22.59-12.544
			c-10.302-9.1-17.581-20.619-20.416-34.244c-0.945-4.726-1.136-9.451-1.136-14.177c0-11.626,0-22.968,0-34.5
			c0-1.891,0-1.891-1.892-1.891c-1.699,0-3.496,0-4.63,0c-0.755,0-1.608,0-1.701-0.094v-0.378c0.757-0.473,0.946-0.473,1.701-0.473
			c2.08,0,4.63,0,6.71,0c7.372,0,14.842,0,21.646,0c0.757,0,0.851,0,1.607,0.379c0.282,0.473,0.188,1.04,0.188,1.89
			c0,5.199,0,10.302,0,15.501c0,6.901,0,13.611,0,20.51c0,7.939,2.741,15.029,8.316,21.052c5.461,5.807,11.437,9.006,19.661,9.953
			c2.078,0.256,4.727,0.256,7.467,0c0.188,0,0.944-0.096,1.135,0c1.7,0.851,3.498,0.593,4.727,0.256
			c6.52-0.352,12.854-2.498,17.675-6.778c6.616-5.197,10.397-12.288,11.343-21.076c0.661-1.418,0.661-2.836,0.661-4.254
			c0-11.343,0-22.97,0-34.595c0-0.567-0.661-1.512,0.189-1.984c0.757-0.378,0.942-0.378,1.7-0.378c6.522,0,12.476,0,19,0
			c1.891,0,1.891,0,1.891,2.173c0,12.193,0,24.387,0,36.581c0,0.473-0.097,1.039,0.66,1.514c0,0.85,0,1.795,0,2.361
			c-0.66,2.647-0.757,5.008-0.944,7.37c-2.554,10.305-6.521,19.661-13.139,27.817c-9.073,10.56-20.321,17.765-33.461,21.213
			C906.692,471.759,903.005,472.111,899.981,472.447z"/>
		<path fill="#FEFEFE" d="M899.981,440.594c-7.373,1.201-14.084,0.257-20.605-3.524c-10.965-6.076-15.975-15.407-16.636-27.507
			c-0.097-12.191,0-24.006,0-36.483c0-0.473,0-0.945,0-1.419c-0.097-0.472-0.097-0.945-0.097-1.418c0-7.467,0-14.65,0-22.117
			c0-0.473,0-0.945,0.758-1.418c20.698,0,41.494,0,62.763,0c0.188,0.473,0.188,0.945,0.188,1.418c0,7.562,0,15.501,0,23.063
			c0,0.378,0,0.378,0,0.472c0,13.044,0.094,25.71,0,38.753c-0.094,8.036-2.929,15.03-8.602,21.079
			c-4.443,4.156-9.169,6.872-14.745,8.505C901.965,440.594,900.925,440.945,899.981,440.594z"/>
		<path fill="#FEFEFE" d="M899.981,472.447c1.039-0.688,2.74-0.596,3.78-0.688c15.123-2.484,28.072-9.356,38.275-20.861
			c7.66-9.007,12.386-19.402,14.276-31.126c0.094-1.416,0.757-2.836,0.757-4.252c0-0.379,0-0.756,0.095-0.852
			c0,18.81,0,38.119,0,57.091c0,0.688-0.095,0.944-0.943,0.944C937.505,472.447,918.696,472.447,899.981,472.447z"/>
		<path fill="#FEFEFE" d="M889.016,472.447c-18.81,0-37.619,0-56.332,0c-0.946,0-1.04-0.336-0.946-0.945c0-18.714,0-37.717,0-56.359
			c0.853,0,0.757,0.566,0.757,0.945c0.096,1.891,0.189,3.686,0.944,5.574c1.985,10.443,6.616,20.134,13.328,28.546
			c5.576,6.521,12.099,11.599,19.659,15.382c6.521,3.428,13.781,5.319,20.604,6.263
			C887.787,471.759,888.733,471.501,889.016,472.447z"/>
		<path fill="#A73E42" d="M889.016,472.447c-1.134-0.596-2.83-0.596-3.875-0.688c-25.33-3.687-46.881-23.698-51.702-48.679
			c-0.755-2.363-0.944-4.727-1.608-7.467c0-0.096,0-0.473-0.094-0.852c0-0.472,0-0.564,0-1.039c0.094-0.378,0.094-0.378,0-0.474
			c0-0.474,0-0.851,0-1.322c0.094-0.473,0.094-1.04,0-1.514c0-12.666,0-25.709,0-38.374c2.648,0,4.632,0,6.71,0
			c1.607,0,1.701,0.094,1.701,1.417c0,11.154,0,22.401,0,33.271c0,8.035,0.945,15.879,3.688,23.454
			c2.74,7.573,6.521,14.192,11.341,20.12c4.727,5.576,10.304,10.302,16.729,13.989c5.86,3.686,13.14,6.265,20.513,7.209
			c1.04,0.258,2.077,0.352,3.118,0.352c0.662,0.596-0.188,0.26-0.188,0.596c-1.038,0-2.741,0-3.779,0
			c-0.096-0.336-0.757-0.336-0.851,0C889.773,472.447,889.679,472.447,889.016,472.447z"/>
		<path fill="#797B83" d="M862.74,346.803c0,7.939,0,15.88,0,23.82c0,0.473,0,0.945,0,1.418c-7.563,0-15.123,0-22.687,0
			c-0.757-0.473-0.757-0.945-0.757-1.796c0-7.089,0-14.556,0-21.645c0-0.473,0-1.324,0.757-1.796
			C847.616,346.803,855.178,346.803,862.74,346.803z"/>
		<path fill="#797B83" d="M933.912,346.803c8.124,0,15.69,0,23.157,0c0.094,0.379,0.094,0.473,0.094,0.851c0,7.94,0,15.501,0,23.441
			c0,0.094,0,0.472,0,0.566c-0.094,0.379-0.757,0-0.851,0c-7.373,0-14.084,0-20.793,0c-0.662,0-0.757,0-0.852,0
			c-0.758-0.472-0.758-0.945-0.758-1.512c0-7.373,0-14.555,0-21.929C933.725,347.748,933.725,347.182,933.912,346.803z"/>
		<path fill="#90929A" d="M840.054,346.803c0,8.413,0,16.825,0,25.238c-2.835,0-5.575,0-8.411,0c0-7.94,0-15.88,0-23.82
			c0-1.039,0.094-1.039,1.04-1.039C835.328,346.803,837.406,346.803,840.054,346.803z"/>
		<path fill="#90929A" d="M933.912,346.803c0,8.413,0,16.825,0,25.238c0,0-0.096,0-0.096,0.094
			c-2.741,0.378-5.576,0.472-8.315-0.094c0-8.413,0-16.825,0-25.238C928.336,346.803,931.74,346.803,933.912,346.803z"/>
		<path fill="#C76B6F" d="M933.912,371.661c8.124,0,15.69,0,23.157,0c0,0,0-0.094,0.094,0l0,0c0,13.044,0,26.088,0,38.849
			c0,0,0,0-0.094,0l0,0c0-12.287,0-24.48,0-37.052c0-1.323-0.663-1.417-1.703-1.417c-7.361,0-14.176,0-21.454,0
			C933.912,372.04,933.912,372.04,933.912,371.661C933.912,372.04,933.912,371.661,933.912,371.661L933.912,371.661z"/>
		<path fill="#827981" d="M957.164,371.661h-0.094c0-8.413,0-16.54,0-24.953c0.188,0.094,0.094,0.567,0.094,0.945
			C957.164,355.688,957.164,363.721,957.164,371.661z"/>
		<path fill="#AE474C" d="M894.592,472.447c0.662-0.336,0.662-0.336,0.757-0.596c0.094,0.26,0.945-0.352,0.853,0.596
			C895.538,472.447,895.349,472.447,894.592,472.447z"/>
		<path fill="#AF4F53" d="M831.644,410.414c0.188,0.475,0.188,1.041,0,1.514C831.644,411.455,831.644,410.889,831.644,410.414z"/>
		<path fill="#CD787C" d="M957.072,410.51h0.095c0,0.473,0,0.945,0,1.418C956.407,411.455,957.164,410.982,957.072,410.51z"/>
		<path fill="#D19A9C" d="M890.53,472.447c0.094-0.596,0.189-0.336,0.283,0C890.719,472.447,890.621,472.447,890.53,472.447z"/>
		<path fill="#D39D9F" d="M831.644,413.25c0.094,0.096,0.094,0.096,0,0.473C831.644,413.723,831.644,413.346,831.644,413.25z"/>
		<path fill="#DEB2B4" d="M898.184,472.447c0.096-0.336,0.096-0.336,0.188,0C898.372,472.447,898.28,472.447,898.184,472.447z"/>
		<path fill="#A73E42" d="M899.981,440.594c13.138-2.839,21.552-10.896,25.237-23.658c0.284-2.737,0.945-5.479,0.945-7.938
			c0-11.721,0-23.441,0-35.446c0-0.472,0-0.945,0-1.418c2.834-0.094,5.575-0.094,8.411,0l0,0c0,12.666,0,25.237,0,37.903
			c0,6.996-2.552,13.137-6.521,19.092c-5.482,6.521-12.1,10.521-20.51,11.816c-1.984,0.593-4.538,0.593-6.523,0.256
			C900.17,440.945,900.073,440.945,899.981,440.594z"/>
		<path fill="#BF5459" d="M933.912,372.04c-2.837,0-5.576,0-8.411,0v-0.379C928.336,371.661,931.74,371.661,933.912,372.04
			L933.912,372.04z"/>
	</g>
</g>
</svg>